IDResults
version=1
nRows=7
nColumns=40
inDegrees=yes

Units are S.I. units (second, meters, Newtons, ...)
If the header above contains a line with 'inDegrees', this indicates whether rotational values are in degrees (yes) or radians (no).

endheader
time	pelvis_tilt	pelvis_list	pelvis_rotation	pelvis_tx	pelvis_ty	pelvis_tz	hip_flexion_r	hip_adduction_r	hip_rotation_r	knee_angle_r	knee_angle_r_beta	ankle_angle_r	subtalar_angle_r	mtp_angle_r	hip_flexion_l	hip_adduction_l	hip_rotation_l	knee_angle_l	knee_angle_l_beta	ankle_angle_l	subtalar_angle_l	mtp_angle_l	lumbar_extension	lumbar_bending	lumbar_rotation	arm_flex_r	arm_add_r	arm_rot_r	elbow_flex_r	pro_sup_r	wrist_flex_r	wrist_dev_r	arm_flex_l	arm_add_l	arm_rot_l	elbow_flex_l	pro_sup_l	wrist_flex_l	wrist_dev_l
      3.10000000	     -3.74406056	      2.81785984	     -2.59705458	      1.40350912	      1.02692589	      0.30716491	     25.64020046	     -5.98137909	     -2.30705492	     50.32856143	      0.87839910	     -5.48781305	    -13.56539615	      0.00000000	     14.50787651	      8.01893229	      3.02988317	     16.66550175	      0.29086788	      1.52634237	     -4.71807079	      0.00000000	    -15.33907688	     -5.57922619	     -5.65297394	    -20.42405441	    -11.11187159	     10.95863448	     44.19255606	     77.42664291	      0.00000000	      0.00000000	     -2.65471097	    -15.09987484	     -7.52540810	     71.65998075	     68.46910648	      0.00000000	      0.00000000
      3.11000000	     -3.75163911	      2.72065481	     -2.10682206	      1.41689713	      1.02792462	      0.30633739	     26.45690206	     -6.07393073	     -3.18925162	     47.99449272	      0.83766192	     -5.23767621	    -13.84699464	      0.00000000	     13.20270070	      8.15910680	      4.06774161	     15.93483597	      0.27811535	      1.85509459	     -5.00174590	      0.00000000	    -15.33064713	     -5.25703492	     -6.00021946	    -20.79199932	    -10.92346681	     10.71889606	     44.12544111	     77.05606900	      0.00000000	      0.00000000	     -2.39200191	    -15.53049276	     -7.43199162	     73.01902801	     67.89807130	      0.00000000	      0.00000000
      3.12000000	     -3.96525612	      2.75050958	     -1.74201874	      1.42996061	      1.02821328	      0.30570527	     27.58547250	     -6.28137615	     -4.01348956	     45.68609022	      0.79737270	     -5.10294017	    -13.83891455	      0.00000000	     12.09258955	      8.32739085	      4.69591099	     15.08387549	      0.26326329	      2.15855305	     -4.97181972	      0.00000000	    -15.09557879	     -5.09645184	     -6.26204035	    -21.12273749	    -10.71471087	     10.43068578	     44.02944560	     76.80034605	      0.00000000	      0.00000000	     -2.12464803	    -15.95505978	     -7.35975435	     74.24742067	     67.65069027	      0.00000000	      0.00000000
      3.13000000	     -3.87752692	      2.67398394	     -1.20603147	      1.44347400	      1.02884535	      0.30491019	     28.12668562	     -6.48028197	     -5.03977150	     43.15358747	      0.75317219	     -4.78608675	    -13.39218529	      0.00000000	     10.66358677	      8.43026056	      5.58644971	     14.29625738	      0.24951676	      2.37540658	     -5.10069987	      0.00000000	    -15.19099313	     -4.78848426	     -6.66559234	    -21.41705626	    -10.52612360	     10.20586640	     43.95378349	     76.41319920	      0.00000000	      0.00000000	     -1.83701553	    -16.36753832	     -7.27065293	     75.40165072	     67.18975660	      0.00000000	      0.00000000
      3.14000000	     -4.18578565	      2.83756419	     -1.00788338	      1.45646563	      1.02828310	      0.30454166	     29.35150673	     -6.71274229	     -5.55027218	     40.80178243	      0.71212544	     -4.84783554	    -12.83116189	      0.00000000	      9.78275495	      8.68489216	      5.99465583	     13.62126666	      0.23773595	      2.87525811	     -5.15479888	      0.00000000	    -14.83182679	     -4.81922095	     -6.80072976	    -21.69631308	    -10.34736140	      9.97598298	     43.83959484	     76.28963252	      0.00000000	      0.00000000	     -1.63207346	    -16.79257688	     -7.18131568	     76.53771205	     67.11180643	      0.00000000	      0.00000000
      3.15000000	     -3.96102845	      2.70985382	     -0.34658803	      1.47025515	      1.02860130	      0.30358788	     29.53587541	     -6.95390885	     -6.86123564	     37.97650498	      0.66281505	     -4.89427582	    -11.66907390	      0.00000000	      8.21283593	      8.73126952	      7.28144935	     12.96207057	      0.22623081	      3.05791727	     -5.56826266	      0.00000000	    -15.07327203	     -4.43154372	     -7.29118424	    -21.95977470	    -10.16101322	      9.69917281	     43.77778481	     75.93027077	      0.00000000	      0.00000000	     -1.34059018	    -17.14655181	     -7.10310322	     77.52783267	     66.69318810	      0.00000000	      0.00000000
      3.16000000	     -4.01579615	      2.74600211	      0.06428912	      1.48356091	      1.02807600	      0.30297005	     30.17049807	     -7.22497946	     -7.94703266	     35.32689090	      0.61657056	     -5.03861631	    -10.51735650	      0.00000000	      7.00347782	      8.88404500	      8.30613357	     12.27117979	      0.21417249	      3.34322644	     -5.97938192	      0.00000000	    -15.01307893	     -4.27686306	     -7.59596234	    -22.13726717	    -10.00517955	      9.55452961	     43.61426552	     75.63780157	      0.00000000	      0.00000000	     -1.11936174	    -17.50448718	     -7.05355686	     78.52405910	     66.35959353	      0.00000000	      0.00000000
